<svg width="52" height="34" viewBox="0 0 52 34" fill="none" xmlns="http://www.w3.org/2000/svg">
<g clip-path="url(#clip0_2_27)">
<path d="M27.5335 2.18466C27.908 0.646334 29.4486 -0.294565 30.9725 0.0835579C32.4964 0.461681 33.4284 2.01693 33.0538 3.55536L26.0977 31.8153C25.723 33.3538 24.1825 34.2946 22.6586 33.9164C21.1346 33.5383 20.2027 31.9831 20.5773 30.4446L27.5335 2.18466ZM15.5034 25.1862C16.6831 26.2286 16.8029 28.0399 15.7703 29.2309C14.7376 30.4218 12.9433 30.5427 11.7637 29.5003L0.969298 19.9523C-0.21035 18.9099 -0.330092 17.0986 0.702595 15.9077C0.791259 15.8055 0.885408 15.7117 0.983619 15.6258L11.7637 6.09057C12.9433 5.04806 14.7376 5.16894 15.7703 6.3598C16.8029 7.55077 16.6831 9.36213 15.5034 10.4045L7.14785 17.7954L15.5034 25.1862ZM40.2363 29.5003C39.0567 30.5427 37.2623 30.4218 36.2297 29.2309C35.1971 28.0399 35.3168 26.2286 36.4966 25.1862L44.8521 17.7954L36.4966 10.4045C35.3168 9.36213 35.1971 7.55077 36.2297 6.3598C37.2623 5.16894 39.0567 5.04806 40.2363 6.09057L51.0163 15.6258C51.1163 15.7131 51.2102 15.8073 51.2974 15.9077C52.3301 17.0986 52.2103 18.9099 51.0307 19.9523L40.2363 29.5003Z" fill="black"/>
</g>
<defs>
<clipPath id="clip0_2_27">
<rect width="52" height="34" fill="white"/>
</clipPath>
</defs>
</svg>
